<svg width="800" height="600" viewBox="0 0 800 600" fill="none" xmlns="http://www.w3.org/2000/svg">
  <!-- Generated by Agent -->
  <!-- Shadow -->
  <ellipse cx="400" cy="520" rx="360" ry="20" fill="#000000" fill-opacity="0.05"/>

  <!-- DESKTOP DASHBOARD (Back) -->
  <g transform="translate(75, 50)">
    <!-- Window Frame -->
    <rect x="0" y="0" width="600" height="400" rx="12" fill="#F9FAFB" stroke="#E5E7EB" stroke-width="2"/>
    <path d="M0 40C0 24 0 12 12 12H588C600 12 600 24 600 40H0Z" fill="#F9FAFB"/> <!-- Top bar area -->
    
    <!-- Sidebar -->
    <rect x="0" y="0" width="140" height="400" rx="0" fill="#FFFFFF" stroke-right="#E5E7EB"/>
    <path d="M140 0V400" stroke="#E5E7EB"/>
    
    <!-- Logo -->
    <rect x="20" y="25" width="80" height="15" rx="4" fill="#1F2937"/>
    <circle cx="106" cy="32" r="3" fill="#CD1C18"/>

    <!-- Nav Items -->
    <rect x="15" y="70" width="110" height="30" rx="6" fill="#FEF2F2"/> <!-- Active -->
    <rect x="25" y="81" width="60" height="8" rx="4" fill="#CD1C18"/>
    
    <rect x="15" y="110" width="110" height="30" rx="6" fill="#FFFFFF"/>
    <rect x="25" y="121" width="70" height="8" rx="4" fill="#9CA3AF"/>
    
    <rect x="15" y="150" width="110" height="30" rx="6" fill="#FFFFFF"/>
    <rect x="25" y="161" width="50" height="8" rx="4" fill="#9CA3AF"/>

    <!-- Content Area -->
    <rect x="141" y="13" width="458" height="386" rx="0" fill="#F9FAFB"/> 
    
    <!-- Top Header -->
    <rect x="160" y="25" width="150" height="20" rx="4" fill="#1F2937"/> <!-- Page Title -->
    <rect x="520" y="25" width="60" height="20" rx="4" fill="#CD1C18"/> <!-- Action Btn -->
    
    <!-- Stats Cards -->
    <rect x="160" y="70" width="130" height="80" rx="8" fill="#FFFFFF" stroke="#E5E7EB"/>
    <circle cx="185" cy="95" r="16" fill="#F3F4F6"/>
    <rect x="175" y="125" width="60" height="12" rx="6" fill="#1F2937"/>
    
    <rect x="305" y="70" width="130" height="80" rx="8" fill="#FFFFFF" stroke="#E5E7EB"/>
    <circle cx="330" cy="95" r="16" fill="#F3F4F6"/>
    <rect x="320" y="125" width="60" height="12" rx="6" fill="#1F2937"/>
    
    <!-- Table -->
    <rect x="160" y="170" width="420" height="200" rx="8" fill="#FFFFFF" stroke="#E5E7EB"/>
    <path d="M160 210H580" stroke="#E5E7EB"/>
    <rect x="180" y="186" width="80" height="8" rx="4" fill="#9CA3AF"/>
    
    <!-- Row 1 -->
    <rect x="180" y="225" width="30" height="30" rx="4" fill="#F3F4F6"/>
    <rect x="225" y="232" width="100" height="8" rx="4" fill="#4B5563"/>
    <rect x="225" y="245" width="60" height="6" rx="3" fill="#9CA3AF"/>
    <rect x="530" y="235" width="20" height="10" rx="2" fill="#F3F4F6"/>
    
    <!-- Row 2 -->
    <path d="M160 270H580" stroke="#E5E7EB"/>
    <rect x="180" y="285" width="30" height="30" rx="4" fill="#F3F4F6"/>
    <rect x="225" y="292" width="90" height="8" rx="4" fill="#4B5563"/>
    <rect x="225" y="305" width="50" height="6" rx="3" fill="#9CA3AF"/>
  </g>

  <!-- MOBILE MENU (Front) -->
  <g transform="translate(525, 150)">
    <!-- Device Frame -->
    <rect x="0" y="0" width="180" height="360" rx="24" fill="#FFFFFF" stroke="#E5E7EB" stroke-width="4"/>
    
    <!-- Screen View -->
    <rect x="6" y="6" width="168" height="348" rx="20" fill="#FFFFFF"/>
    
    <!-- Menu Header -->
    <rect x="6" y="20" width="168" height="50" fill="#FFFFFF"/>
    <rect x="40" y="30" width="100" height="10" rx="5" fill="#CD1C18"/> <!-- Brand Name -->
    <rect x="60" y="45" width="60" height="6" rx="3" fill="#9CA3AF"/> <!-- Subtitle -->
    
    <!-- Menu Items -->
    <!-- Item 1 -->
    <rect x="16" y="80" width="148" height="60" rx="8" fill="#FFFFFF" stroke="#F3F4F6"/>
    <rect x="115" y="90" width="40" height="40" rx="6" fill="#F3F4F6"/> <!-- Img -->
    <rect x="26" y="95" width="70" height="8" rx="4" fill="#1F2937"/> <!-- Name -->
    <rect x="26" y="110" width="30" height="8" rx="4" fill="#CD1C18"/> <!-- Price -->

    <!-- Item 2 -->
    <rect x="16" y="150" width="148" height="60" rx="8" fill="#FFFFFF" stroke="#F3F4F6"/>
    <rect x="115" y="160" width="40" height="40" rx="6" fill="#F3F4F6"/>
    <rect x="26" y="165" width="80" height="8" rx="4" fill="#1F2937"/>
    <rect x="26" y="180" width="30" height="8" rx="4" fill="#CD1C18"/>
    
    <!-- Item 3 -->
    <rect x="16" y="220" width="148" height="60" rx="8" fill="#FFFFFF" stroke="#F3F4F6"/>
    <rect x="115" y="230" width="40" height="40" rx="6" fill="#F3F4F6"/>
    <rect x="26" y="235" width="60" height="8" rx="4" fill="#1F2937"/>
    <rect x="26" y="250" width="30" height="8" rx="4" fill="#CD1C18"/>
    
    <!-- Bottom Nav -->
    <path d="M6 310H174V334C174 345 165 354 154 354H26C15 354 6 345 6 334V310Z" fill="#FFFFFF"/>
    <line x1="60" y1="344" x2="120" y2="344" stroke="#E5E7EB" stroke-width="4" stroke-linecap="round"/>

    <!-- Status Bar (Notch) -->
    <path d="M50 6H130V18C130 22 126 26 122 26H58C54 26 50 22 50 18V6Z" fill="#FFFFFF"/>
  </g>
</svg>
