<svg width="400" height="800" viewBox="0 0 400 800" fill="none" xmlns="http://www.w3.org/2000/svg">
  <!-- Phone Frame -->
  <rect x="20" y="20" width="360" height="760" rx="40" fill="#FFFFFF" stroke="#E5E7EB" stroke-width="2"/>
  <rect x="35" y="35" width="330" height="730" rx="30" fill="#F9FAFB"/>
  
  <!-- Notch/Status Bar Area -->
  <path d="M130 35H270V55C270 65 260 75 250 75H150C140 75 130 65 130 55V35Z" fill="#FFFFFF"/>
  
  <!-- App Header -->
  <rect x="35" y="80" width="330" height="60" fill="#FFFFFF"/>
  <rect x="55" y="100" width="24" height="24" rx="4" fill="#CD1C18"/> <!-- Logo/Icon -->
  <rect x="90" y="102" width="120" height="20" rx="4" fill="#1F2937"/> <!-- Title -->
  
  <!-- Hero Section -->
  <rect x="55" y="160" width="290" height="150" rx="12" fill="#FFFFFF" stroke="#E5E7EB"/>
  <rect x="55" y="160" width="290" height="100" rx="12" fill="#F3F4F6"/> <!-- Hero Image Placeholder -->
  <rect x="70" y="275" width="100" height="12" rx="6" fill="#1F2937"/> <!-- Item Name -->
  <rect x="280" y="275" width="50" height="12" rx="6" fill="#CD1C18"/> <!-- Price -->
  
  <!-- Menu List -->
  <!-- Item 1 -->
  <rect x="55" y="330" width="290" height="80" rx="12" fill="#FFFFFF" stroke="#E5E7EB"/>
  <rect x="70" y="345" width="50" height="50" rx="8" fill="#F3F4F6"/>
  <rect x="135" y="350" width="100" height="12" rx="6" fill="#1F2937"/>
  <rect x="135" y="370" width="140" height="10" rx="5" fill="#9CA3AF"/>
  <rect x="290" y="350" width="40" height="12" rx="6" fill="#CD1C18"/>
  
  <!-- Item 2 -->
  <rect x="55" y="425" width="290" height="80" rx="12" fill="#FFFFFF" stroke="#E5E7EB"/>
  <rect x="70" y="440" width="50" height="50" rx="8" fill="#F3F4F6"/>
  <rect x="135" y="445" width="80" height="12" rx="6" fill="#1F2937"/>
  <rect x="135" y="465" width="120" height="10" rx="5" fill="#9CA3AF"/>
  <rect x="290" y="445" width="40" height="12" rx="6" fill="#CD1C18"/>
  
  <!-- Item 3 -->
  <rect x="55" y="520" width="290" height="80" rx="12" fill="#FFFFFF" stroke="#E5E7EB"/>
  <rect x="70" y="535" width="50" height="50" rx="8" fill="#F3F4F6"/>
  <rect x="135" y="540" width="110" height="12" rx="6" fill="#1F2937"/>
  <rect x="135" y="560" width="100" height="10" rx="5" fill="#9CA3AF"/>
  <rect x="290" y="540" width="40" height="12" rx="6" fill="#CD1C18"/>
  
  <!-- Bottom Nav -->
  <rect x="35" y="700" width="330" height="65" fill="#FFFFFF" stroke="#E5E7EB"/>
  <circle cx="100" cy="732" r="12" fill="#CD1C18"/>
  <circle cx="200" cy="732" r="10" fill="#E5E7EB"/>
  <circle cx="300" cy="732" r="10" fill="#E5E7EB"/>
  
  <!-- Reflection/Glare -->
  <path d="M35 35L365 35L35 765L35 35Z" fill="url(#paint0_linear)" fill-opacity="0.03"/>
  
  <defs>
    <linearGradient id="paint0_linear" x1="200" y1="35" x2="200" y2="765" gradientUnits="userSpaceOnUse">
      <stop stop-color="white"/>
      <stop offset="1" stop-color="white" stop-opacity="0"/>
    </linearGradient>
  </defs>
</svg>
